<?xml version="1.0" standalone="no"?><!DOCTYPE svg PUBLIC "-//W3C//DTD SVG 1.1//EN" "http://www.w3.org/Graphics/SVG/1.1/DTD/svg11.dtd"><svg t="1735388542279" class="icon" viewBox="0 0 1024 1024" version="1.1" xmlns="http://www.w3.org/2000/svg" p-id="23716" xmlns:xlink="http://www.w3.org/1999/xlink" width="200" height="200"><path d="M338.602667 786.304a25149.226667 25149.226667 0 0 1 133.973333 176.085333c19.029333 25.258667 59.818667 25.258667 78.890667 0a25000.277333 25000.277333 0 0 1 133.973333-176.085333C859.52 558.848 896 511.274667 896 394.666667 896 200.277333 724.053333 42.666667 512 42.666667S128 200.277333 128 394.666667c0 116.608 36.394667 164.181333 210.602667 391.637333zM512 597.333333a170.666667 170.666667 0 1 1 0-341.333333 170.666667 170.666667 0 0 1 0 341.333333z" fill="#FFCC00" p-id="23717"></path><path d="M682.666667 426.666667a170.666667 170.666667 0 1 1-341.333334 0 170.666667 170.666667 0 0 1 341.333334 0z m-64 0a106.666667 106.666667 0 1 0-213.333334 0 106.666667 106.666667 0 0 0 213.333334 0z" fill="#000000" p-id="23718"></path><path d="M472.533333 962.389333a25149.226667 25149.226667 0 0 0-133.973333-176.085333C164.437333 558.848 128 511.274667 128 394.666667 128 200.277333 299.946667 42.666667 512 42.666667s384 157.610667 384 352c0 116.608-36.437333 164.181333-210.602667 391.637333a25000.277333 25000.277333 0 0 0-133.973333 176.085333c-19.029333 25.258667-59.818667 25.258667-78.890667 0z m164.394667-218.112c66.645333-86.997333 111.488-145.493333 142.250667-192.426666 23.296-35.541333 35.84-60.458667 42.965333-82.56 6.912-21.504 9.856-43.52 9.856-74.624 0-153.941333-137.898667-288-320-288S192 240.725333 192 394.666667c0 31.104 2.944 53.12 9.856 74.581333 7.168 22.144 19.626667 47.061333 42.965333 82.602667 30.762667 46.933333 75.605333 105.429333 142.250667 192.426666 35.157333 45.952 76.458667 99.84 124.928 164.138667 48.469333-64.298667 89.770667-118.186667 124.928-164.138667z" fill="#000000" p-id="23719"></path></svg>