<?xml version="1.0" standalone="no"?><!DOCTYPE svg PUBLIC "-//W3C//DTD SVG 1.1//EN" "http://www.w3.org/Graphics/SVG/1.1/DTD/svg11.dtd"><svg t="1747051952244" class="icon" viewBox="0 0 1024 1024" version="1.1" xmlns="http://www.w3.org/2000/svg" p-id="12164" xmlns:xlink="http://www.w3.org/1999/xlink" width="200" height="200"><path d="M982.528 435.882667c-16.896 0-33.194667 9.386667-46.037333 26.325333l-161.066667 213.077333c-26.666667 35.285333-64.554667 55.509333-103.936 55.509334h-0.597333c-39.424 0-77.312-20.224-103.936-55.509334l-161.066667-213.077333c-12.8-16.938667-29.098667-26.325333-46.08-26.325333-16.853333 0-33.28 9.386667-45.994667 26.325333l-161.152 213.077333c-26.453333 34.986667-64 55.210667-102.997333 55.509334C131.754667 903.936 307.669333 1024 512 1024c282.752 0 512-229.205333 512-511.957333a512 512 0 0 0-3.669333-58.965334c-11.264-11.093333-24.32-17.194667-37.802667-17.194666M683.093333 325.077333a53.504 53.504 0 1 1 0-106.965333 53.504 53.504 0 0 1 0 106.965333M512.042667 0C229.248 0 0 229.162667 0 512.042667c0 44.970667 6.4 88.32 17.322667 129.962666 9.685333 7.466667 20.437333 11.776 31.445333 11.776 16.981333 0 33.28-9.301333 46.08-26.154666L256 414.464c26.581333-35.370667 64.554667-55.552 103.850667-55.552 39.338667 0 77.226667 20.181333 103.893333 55.552l155.008 204.928 6.656 8.234667c12.8 16.810667 29.056 26.026667 45.824 26.154666 16.725333-0.128 33.024-9.386667 45.738667-26.154666l6.826666-8.234667 154.965334-204.928c26.624-35.370667 64.512-55.552 103.808-55.552 6.272 0 12.544 0.682667 18.645333 1.621333C936.618667 151.722667 742.058667 0 512.042667 0" fill="rgba(255, 255, 255, 0.65)" p-id="12165"></path></svg>
