<?xml version="1.0" standalone="no"?><!DOCTYPE svg PUBLIC "-//W3C//DTD SVG 1.1//EN" "http://www.w3.org/Graphics/SVG/1.1/DTD/svg11.dtd"><svg t="1747052022284" class="icon" viewBox="0 0 1024 1024" version="1.1" xmlns="http://www.w3.org/2000/svg" p-id="20119" xmlns:xlink="http://www.w3.org/1999/xlink" width="200" height="200"><path d="M512 0L21.299 221.798v574.669L512 1024l490.701-221.798V221.799L512 0.001z m0 938.598L94.618 751.001V301.465L512 489.267v449.331zM145.408 250.266L512 79.668l366.592 170.598L512 415.335 145.408 250.266z m597.811 546.201l-90.317 39.731V506.265l84.582-39.731c95.846-39.731 157.901-16.998 157.901 96.666 0.205 108.134-61.85 193.331-152.166 233.267z m-445.44-62.669c-28.262-11.469-50.79-34.202-73.318-62.669l-28.262 28.467c22.528 34.202 56.32 68.198 107.11 85.402 62.054 22.733 112.845 11.469 112.845-51.2-5.734-34.202-33.792-73.933-67.584-96.666 33.792 0 56.32-22.733 56.32-56.934 0-56.934-39.526-102.4-107.11-125.133-39.526-16.998-67.584-11.469-95.846 0l33.792 56.934c16.998-11.469 39.526-11.469 62.054-5.734 28.262 11.469 45.056 34.202 45.056 56.934 0 28.467-16.998 39.731-79.053 16.998v45.466c67.584 28.467 90.317 56.934 90.317 85.402s-22.528 34.202-56.32 22.733z m439.706-216.064l-16.998 5.734v227.533l16.998-5.734c56.32-22.733 95.846-73.933 95.846-153.6-5.53-85.402-39.322-96.666-95.846-73.933z" p-id="20120"></path></svg>
